<svg width="1003" height="1003" viewBox="0 0 1003 1003" fill="none" xmlns="http://www.w3.org/2000/svg">
<path d="M266.107 353.516H560.735V530.301H266.107V353.516Z" fill="black"/>
<path d="M590.204 353.516H737.526V648.144H590.204V353.516Z" fill="black"/>
<path d="M266.107 559.778H560.735V589.241H266.107V559.778Z" fill="black"/>
<path d="M266.107 618.695H560.735V648.158H266.107V618.695Z" fill="black"/>
<path d="M266.107 677.612H560.735V707.075H266.107V677.612Z" fill="black"/>
<path d="M907.436 859.321H95.2247C91.2958 859.321 86.3867 858.34 82.4578 857.36C64.7818 852.451 52.0142 838.704 47.0971 822C46.1169 818.071 45.1367 814.142 45.1367 809.233V193.433C45.1367 165.93 67.7227 143.346 95.2236 143.346H907.435C912.344 143.346 918.241 144.326 923.151 146.295C937.886 151.204 949.664 162.991 954.581 177.726C956.542 182.635 957.53 187.544 957.53 193.441V809.22C957.522 837.702 934.936 859.307 907.435 859.307L907.436 859.321ZM95.2247 173.799C84.4182 173.799 74.5999 182.637 74.5999 194.424V810.203C74.5999 812.163 74.5999 814.132 75.5801 815.112C77.5405 821.99 83.438 827.879 90.3156 829.848C92.276 829.848 93.2644 830.828 95.2248 830.828H907.436C918.243 830.828 928.061 821.99 928.061 810.203V193.428C928.061 191.468 928.061 189.5 927.081 187.539C925.12 181.65 920.203 176.733 914.314 174.772C912.353 173.792 910.385 173.792 908.425 173.792L95.2247 173.799Z" fill="black"/>
<path d="M894.661 801.378H108.974V260.235H894.661V801.378ZM138.422 771.915H865.192V289.69H138.422V771.915Z" fill="black"/>
<path d="M108.974 201.298H138.437V230.76H108.974V201.298Z" fill="black"/>
<path d="M167.891 201.298H197.354V230.76H167.891V201.298Z" fill="black"/>
<path d="M226.83 201.298H256.292V230.76H226.83V201.298Z" fill="black"/>
</svg>
